GIL04_free3_ik
nRows=3
nColumns=375

# SIMM Motion File Header:
name GIL04_free3_ik
datacolumns 375
datarows 3
otherdata 1
range 0.85833000 0.87500000
endheader
time	pelvis_tx	pelvis_ty	pelvis_tz	pelvis_tilt	pelvis_list	pelvis_rotation	hip_flexion_r	hip_adduction_r	hip_rotation_r	knee_angle_r	ankle_angle_r	hip_flexion_l	hip_adduction_l	hip_rotation_l	knee_angle_l	ankle_angle_l	lumbar_extension	lumbar_bending	lumbar_rotation	subtalar_angle_r	mtp_angle_r	subtalar_angle_l	mtp_angle_l	asis_r_px	asis_r_py	asis_r_pz	asis_l_px	asis_l_py	asis_l_pz	midasis_px	midasis_py	midasis_pz	psis_r_px	psis_r_py	psis_r_pz	psis_l_px	psis_l_py	psis_l_pz	hip_r_px	hip_r_py	hip_r_pz	hip_l_px	hip_l_py	hip_l_pz	midhip_px	midhip_py	midhip_pz	epicondLat_r_px	epicondLat_r_py	epicondLat_r_pz	epicondMed_r_px	epicondMed_r_py	epicondMed_r_pz	thighwand_r_px	thighwand_r_py	thighwand_r_pz	upperleg1_r_px	upperleg1_r_py	upperleg1_r_pz	upperleg2_r_px	upperleg2_r_py	upperleg2_r_pz	malleolusLat_r_px	malleolusLat_r_py	malleolusLat_r_pz	malleolusMedv_r_px	malleolusMedv_r_py	malleolusMedv_r_pz	shankwand_r_px	shankwand_r_py	shankwand_r_pz	lowerleg1_r_px	lowerleg1_r_py	lowerleg1_r_pz	knee_r_px	knee_r_py	knee_r_pz	ankle_r_px	ankle_r_py	ankle_r_pz	toe_r_px	toe_r_py	toe_r_pz	epicondLat_l_px	epicondLat_l_py	epicondLat_l_pz	epicondMed_l_px	epicondMed_l_py	epicondMed_l_pz	thighwand_l_px	thighwand_l_py	thighwand_l_pz	upperleg1_l_px	upperleg1_l_py	upperleg1_l_pz	upperleg2_l_px	upperleg2_l_py	upperleg2_l_pz	malleolusLat_l_px	malleolusLat_l_py	malleolusLat_l_pz	malleolusMedv_l_px	malleolusMedv_l_py	malleolusMedv_l_pz	shankwand_l_px	shankwand_l_py	shankwand_l_pz	lowerleg1_l_px	lowerleg1_l_py	lowerleg1_l_pz	knee_l_px	knee_l_py	knee_l_pz	ankle_l_px	ankle_l_py	ankle_l_pz	toe_l_px	toe_l_py	toe_l_pz	subclavicle_r_px	subclavicle_r_py	subclavicle_r_pz	subclavicle_l_px	subclavicle_l_py	subclavicle_l_pz	neck_px	neck_py	neck_pz	sternalnotch_px	sternalnotch_py	sternalnotch_pz	xyphoidprocess_px	xyphoidprocess_py	xyphoidprocess_pz	midhip_tx	midhip_ty	midhip_tz	hip_r_tx	hip_r_ty	hip_r_tz	hip_l_tx	hip_l_ty	hip_l_tz	knee_r_tx	knee_r_ty	knee_r_tz	knee_l_tx	knee_l_ty	knee_l_tz	ankle_r_tx	ankle_r_ty	ankle_r_tz	ankle_l_tx	ankle_l_ty	ankle_l_tz	midasis_tx	midasis_ty	midasis_tz	asis_r_tx	asis_r_ty	asis_r_tz	asis_l_tx	asis_l_ty	asis_l_tz	psis_r_tx	psis_r_ty	psis_r_tz	psis_l_tx	psis_l_ty	psis_l_tz	epicondLat_r_tx	epicondLat_r_ty	epicondLat_r_tz	epicondLat_l_tx	epicondLat_l_ty	epicondLat_l_tz	epicondMed_r_tx	epicondMed_r_ty	epicondMed_r_tz	epicondMed_l_tx	epicondMed_l_ty	epicondMed_l_tz	malleolusLat_r_tx	malleolusLat_r_ty	malleolusLat_r_tz	malleolusLat_l_tx	malleolusLat_l_ty	malleolusLat_l_tz	malleolusMedv_r_tx	malleolusMedv_r_ty	malleolusMedv_r_tz	malleolusMedv_l_tx	malleolusMedv_l_ty	malleolusMedv_l_tz	neck_tx	neck_ty	neck_tz	subclavicle_r_tx	subclavicle_r_ty	subclavicle_r_tz	subclavicle_l_tx	subclavicle_l_ty	subclavicle_l_tz	sternalnotch_tx	sternalnotch_ty	sternalnotch_tz	xyphoidprocess_tx	xyphoidprocess_ty	xyphoidprocess_tz	thighwand_r_tx	thighwand_r_ty	thighwand_r_tz	thighwand_l_tx	thighwand_l_ty	thighwand_l_tz	upperleg1_r_tx	upperleg1_r_ty	upperleg1_r_tz	upperleg1_l_tx	upperleg1_l_ty	upperleg1_l_tz	upperleg2_r_tx	upperleg2_r_ty	upperleg2_r_tz	upperleg2_l_tx	upperleg2_l_ty	upperleg2_l_tz	shankwand_r_tx	shankwand_r_ty	shankwand_r_tz	shankwand_l_tx	shankwand_l_ty	shankwand_l_tz	lowerleg1_r_tx	lowerleg1_r_ty	lowerleg1_r_tz	lowerleg1_l_tx	lowerleg1_l_ty	lowerleg1_l_tz	toe_r_tx	toe_r_ty	toe_r_tz	toe_l_tx	toe_l_ty	toe_l_tz	ground_force_vx	ground_force_vy	ground_force_vz	ground_force_px	ground_force_py	ground_force_pz	ground_force_vx	ground_force_vy	ground_force_vz	ground_force_px	ground_force_py	ground_force_pz	ground_torque_x	ground_torque_y	ground_torque_z	ground_torque_x	ground_torque_y	ground_torque_z	ground_marker_px	ground_marker_py	ground_marker_pz	ground_marker_px	ground_marker_py	ground_marker_pz	ground_marker_px	ground_marker_py	ground_marker_pz	ground_marker_px	ground_marker_py	ground_marker_pz	ground_marker_px	ground_marker_py	ground_marker_pz	ground_marker_px	ground_marker_py	ground_marker_pz	ground_marker_px	ground_marker_py	ground_marker_pz	ground_marker_px	ground_marker_py	ground_marker_pz	ground_marker_px	ground_marker_py	ground_marker_pz	ground_marker_px	ground_marker_py	ground_marker_pz	ground_marker_px	ground_marker_py	ground_marker_pz	ground_marker_px	ground_marker_py	ground_marker_pz	ground_marker_px	ground_marker_py	ground_marker_pz	ground_marker_px	ground_marker_py	ground_marker_pz	ground_marker_px	ground_marker_py	ground_marker_pz	ground_marker_px	ground_marker_py	ground_marker_pz	ground_marker_px	ground_marker_py	ground_marker_pz	ground_marker_px	ground_marker_py	ground_marker_pz	ground_marker_px	ground_marker_py	ground_marker_pz	ground_marker_px	ground_marker_py	ground_marker_pz	ground_marker_px	ground_marker_py	ground_marker_pz	ground_marker_px	ground_marker_py	ground_marker_pz	ground_marker_px	ground_marker_py	ground_marker_pz	ground_marker_px	ground_marker_py	ground_marker_pz	ground_marker_px	ground_marker_py	ground_marker_pz	ground_marker_px	ground_marker_py	ground_marker_pz	ground_marker_px	ground_marker_py	ground_marker_pz	ground_marker_px	ground_marker_py	ground_marker_pz	ground_marker_px	ground_marker_py	ground_marker_pz	ground_marker_px	ground_marker_py	ground_marker_pz	ground_marker_px	ground_marker_py	ground_marker_pz	ground_marker_px	ground_marker_py	ground_marker_pz	ground_marker_px	ground_marker_py	ground_marker_pz	ground_marker_px	ground_marker_py	ground_marker_pz	ground_marker_px	ground_marker_py	ground_marker_pz	ground_marker_px	ground_marker_py	ground_marker_pz	ground_marker_px	ground_marker_py	ground_marker_pz
      0.85833000	      1.99790348	      0.74405716	     -0.18224017	     -1.33015032	     -2.09201884	      0.79156315	      6.43453291	      8.18571616	     -0.29815973	    -13.88517366	      8.97291946	     21.35110534	     -4.33112425	     -5.04231877	    -53.49124246	     -0.74249568	     -4.66055579	      1.79382238	      9.70084593	      0.00000000	      0.00000000	      0.00000000	      0.00000000	      2.10355156	      0.73290821	     -0.10341667	      2.10691128	      0.71699540	     -0.28953954	      2.00811703	      0.74381485	     -0.18238123	      1.97179505	      0.79830394	     -0.18574264	      1.97125712	      0.78881166	     -0.23984834	      1.94609926	      0.69928947	     -0.11887378	      1.94431269	      0.69488104	     -0.24065986	      1.94520598	      0.69708525	     -0.17976682	      2.01257048	      0.36051704	     -0.09746810	      2.00951860	      0.37021213	     -0.19746475	      2.01603470	      0.45852298	     -0.01711500	      2.05335913	      0.52049638	     -0.08157524	      2.05923664	      0.43756945	     -0.09917052	      1.94404773	      0.03955113	     -0.12341090	      1.95032747	      0.05021218	     -0.18223724	      1.94305877	      0.14290427	     -0.04781229	      1.96584203	      0.19716069	     -0.10597760	      1.97236137	      0.37469729	     -0.15419310	      1.92264314	      0.06066252	     -0.18670146	      2.04839791	      0.01754540	     -0.14616475	      2.09021589	      0.39090449	     -0.33154762	      2.10730162	      0.38067826	     -0.22933868	      2.19537076	      0.52139508	     -0.32371878	      2.12539985	      0.55699451	     -0.25594767	      2.13417807	      0.46966599	     -0.25515648	      1.88157824	      0.10062883	     -0.31428264	      1.89089407	      0.09866262	     -0.25132080	      2.01342264	      0.12563285	     -0.32860500	      2.00160618	      0.20525181	     -0.30092829	      2.06048529	      0.38292532	     -0.25652002	      1.88569612	      0.11612975	     -0.23613850	      1.94903909	      0.01900787	     -0.30158601	      1.98278586	      1.13777403	     -0.12572203	      1.97246630	      1.15130950	     -0.23986108	      1.89710090	      1.14301481	     -0.17484788	      1.97881679	      1.13253850	     -0.18692648	      2.06744774	      1.02053275	     -0.20755051	      1.95295500	      0.69063100	     -0.18191000	      1.94908700	      0.69844300	     -0.11724900	      1.94633400	      0.69454400	     -0.24298800	      1.97528100	      0.38489900	     -0.15726100	      2.05669900	      0.39042700	     -0.25742700	      1.92336000	      0.05605600	     -0.16685300	      1.88321900	      0.12764700	     -0.25381900	      2.01277400	      0.76056000	     -0.18353000	      2.01481900	      0.76345600	     -0.09014500	      2.01072900	      0.75766500	     -0.27691500	      1.86666200	      0.79922200	     -0.16301200	      1.86434400	      0.79162700	     -0.21772500	      1.97671100	      0.37862700	     -0.10717200	      2.05014200	      0.39040200	     -0.30699500	      1.97076800	      0.38477800	     -0.20442300	      2.08132700	      0.39059500	     -0.20473100	      1.91832500	      0.05588500	     -0.13373400	      1.87435800	      0.13304500	     -0.28672200	      1.92321900	      0.06806800	     -0.19295200	      1.88433700	      0.13764300	     -0.22526800	      1.90596400	      1.14590000	     -0.17676100	      1.98867000	      1.09456100	     -0.12052900	      1.97924400	      1.10090700	     -0.24842100	      1.97783400	      1.08636200	     -0.18719300	      1.99266700	      0.94355800	     -0.19459900	      1.97220600	      0.45952700	     -0.01822200	      2.14883100	      0.53615200	     -0.30442900	      2.00241700	      0.52893400	     -0.07767500	      2.07487700	      0.56639500	     -0.23949800	      2.01562000	      0.44861600	     -0.10161100	      2.09598200	      0.48123800	     -0.23436500	      1.92208100	      0.15476500	     -0.05668200	      2.00153100	      0.16229900	     -0.30654000	      1.93991200	      0.21214900	     -0.11328500	      1.99074200	      0.24109400	     -0.27904200	      2.02008300	      0.03823600	     -0.16629700	      1.94388700	      0.06378600	     -0.26631400	    -13.21294691	    235.46678767	     -5.09235967	      1.99139282	      0.00000000	     -0.16114027	      0.00000000	      0.00000000	      0.00000000	      1.43362866	      0.00000000	     -0.19541797	      0.00000000	      0.70732227	      0.00000000	      0.00000000	      0.00000000	      0.00000000	      1.95295501	      0.69063139	     -0.18190996	      1.94908702	      0.69844347	     -0.11724921	      1.94633353	      0.69454449	     -0.24298753	      1.97528052	      0.38489944	     -0.15726079	      2.05669856	      0.39042744	     -0.25742713	      1.92335963	      0.05605583	     -0.16685320	      1.88321900	      0.12764734	     -0.25381932	      2.01277447	      0.76056027	     -0.18352982	      2.01481938	      0.76345605	     -0.09014453	      2.01072931	      0.75766456	     -0.27691513	      1.86666203	      0.79922223	     -0.16301192	      1.86434400	      0.79162651	     -0.21772499	      1.97671139	      0.37862718	     -0.10717227	      2.05014181	      0.39040151	     -0.30699536	      1.97076845	      0.38477838	     -0.20442271	      2.08132672	      0.39059481	     -0.20473133	      1.91832483	      0.05588469	     -0.13373417	      1.87435842	      0.13304508	     -0.28672230	      1.92321885	      0.06806793	     -0.19295214	      1.88433695	      0.13764295	     -0.22526784	      1.90596437	      1.14589953	     -0.17676149	      1.98867023	      1.09456110	     -0.12052893	      1.97924447	      1.10090733	     -0.24842127	      1.97783363	      1.08636153	     -0.18719259	      1.99266684	      0.94355834	     -0.19459859	      1.97220564	      0.45952749	     -0.01822179	      2.14883089	      0.53615177	     -0.30442947	      2.00241733	      0.52893418	     -0.07767504	      2.07487679	      0.56639510	     -0.23949823	      2.01562047	      0.44861615	     -0.10161061	      2.09598207	      0.48123771	     -0.23436527	      1.92208135	      0.15476547	     -0.05668151	      2.00153136	      0.16229862	     -0.30653980	      1.93991232	      0.21214886	     -0.11328495	      1.99074244	      0.24109435	     -0.27904245	      2.02008319	      0.03823591	     -0.16629675	      1.94388688	      0.06378558	     -0.26631409
      0.86667000	      2.00663382	      0.74448736	     -0.18105527	     -1.22192862	     -1.89663577	      0.59664319	      5.13438278	      8.01462676	     -0.33811899	    -12.98935211	      9.17265980	     22.11979973	     -3.96464036	     -4.04528381	    -51.41748757	     -0.09944199	     -4.91002232	      1.35517761	     10.26944998	      0.00000000	      0.00000000	      0.00000000	      0.00000000	      2.11202984	      0.73328690	     -0.10190233	      2.11606772	      0.71800203	     -0.28806435	      2.01684826	      0.74426596	     -0.18116161	      1.98042855	      0.79869316	     -0.18446787	      1.98009758	      0.78938043	     -0.23860643	      1.95470014	      0.69940487	     -0.11801888	      1.95334527	      0.69539930	     -0.23982445	      1.95402270	      0.69740208	     -0.17892167	      2.01403400	      0.35932790	     -0.09632700	      2.01170181	      0.36909046	     -0.19633647	      2.01910925	      0.45723604	     -0.01594029	      2.05804193	      0.51842777	     -0.08019568	      2.06229305	      0.43539808	     -0.09777444	      1.94400991	      0.03939200	     -0.12280214	      1.95074739	      0.05004324	     -0.18157959	      1.94303564	      0.14271967	     -0.04716853	      1.96649617	      0.19688035	     -0.10515357	      1.97426050	      0.37439957	     -0.15324848	      1.92314851	      0.06063789	     -0.18622892	      2.04850693	      0.01729305	     -0.14471910	      2.10566198	      0.39394893	     -0.32857897	      2.12069475	      0.38359543	     -0.22606075	      2.20867730	      0.52594668	     -0.31804005	      2.13674439	      0.56025735	     -0.25167284	      2.14679772	      0.47306551	     -0.25098985	      1.91110481	      0.09506745	     -0.31787065	      1.91915039	      0.09306105	     -0.25473518	      2.04178610	      0.12683352	     -0.32912197	      2.02534570	      0.20552290	     -0.30114872	      2.07415008	      0.38558167	     -0.25420520	      1.91274579	      0.11011781	     -0.23954738	      1.98326722	      0.01782123	     -0.30463530	      1.99258249	      1.13811474	     -0.12608239	      1.98148939	      1.15130063	     -0.24018980	      1.90656547	      1.14339735	     -0.17461994	      1.98816930	      1.13268816	     -0.18723977	      2.07638975	      1.02040599	     -0.20811925	      1.96150100	      0.69108600	     -0.18222200	      1.95746400	      0.69858000	     -0.11748500	      1.95534800	      0.69513100	     -0.24324900	      1.97729600	      0.38488700	     -0.15723200	      2.07041600	      0.39216900	     -0.25675500	      1.92364000	      0.05620900	     -0.16702600	      1.91086900	      0.12123000	     -0.25399400	      2.02138400	      0.76103600	     -0.18322000	      2.02295500	      0.76359700	     -0.08983300	      2.01981300	      0.75847500	     -0.27660700	      1.87507000	      0.79950300	     -0.16353100	      1.87307700	      0.79187700	     -0.21829500	      1.97827000	      0.37860000	     -0.10713400	      2.06502700	      0.39233900	     -0.30646300	      1.97241400	      0.38536800	     -0.20484200	      2.09396400	      0.39300600	     -0.20377300	      1.91842200	      0.05607500	     -0.13393500	      1.90179600	      0.12623700	     -0.28690100	      1.92353600	      0.06828200	     -0.19319300	      1.91134100	      0.13096200	     -0.22538500	      1.91540900	      1.14640800	     -0.17673600	      1.99797700	      1.09498500	     -0.12053600	      1.98852400	      1.10127100	     -0.24840600	      1.98712100	      1.08675500	     -0.18718200	      2.00166800	      0.94393000	     -0.19450400	      1.97488100	      0.45971300	     -0.01826000	      2.16152100	      0.54034300	     -0.30083400	      2.00728700	      0.52797700	     -0.07760400	      2.08523300	      0.56898900	     -0.23719700	      2.01838200	      0.44799500	     -0.10152800	      2.10773900	      0.48413600	     -0.23225100	      1.92228200	      0.15495900	     -0.05684700	      2.02718000	      0.16207700	     -0.30633300	      1.94043700	      0.21226300	     -0.11348300	      2.01248400	      0.23997700	     -0.27879100	      2.02018500	      0.03823200	     -0.16626800	      1.97522400	      0.06149000	     -0.26661400	    -11.99875916	    233.18044504	     -4.54569666	      1.99516724	      0.00000000	     -0.16113019	      0.00000000	      0.00000000	      0.00000000	      1.43456836	      0.00000000	     -0.19460640	      0.00000000	      0.79245483	      0.00000000	      0.00000000	      0.00000000	      0.00000000	      1.96150064	      0.69108593	     -0.18222168	      1.95746362	      0.69858003	     -0.11748469	      1.95534754	      0.69513142	     -0.24324851	      1.97729599	      0.38488662	     -0.15723176	      2.07041621	      0.39216942	     -0.25675455	      1.92363989	      0.05620888	     -0.16702555	      1.91086888	      0.12123003	     -0.25399369	      2.02138424	      0.76103616	     -0.18321984	      2.02295542	      0.76359695	     -0.08983301	      2.01981282	      0.75847536	     -0.27660665	      1.87507021	      0.79950345	     -0.16353118	      1.87307727	      0.79187745	     -0.21829519	      1.97826958	      0.37860042	     -0.10713399	      2.06502724	      0.39233866	     -0.30646300	      1.97241390	      0.38536787	     -0.20484167	      2.09396410	      0.39300632	     -0.20377289	      1.91842246	      0.05607459	     -0.13393462	      1.90179610	      0.12623735	     -0.28690058	      1.92353606	      0.06828176	     -0.19319266	      1.91134059	      0.13096173	     -0.22538462	      1.91540945	      1.14640760	     -0.17673592	      1.99797690	      1.09498549	     -0.12053647	      1.98852444	      1.10127079	     -0.24840648	      1.98712063	      1.08675516	     -0.18718171	      2.00166774	      0.94393003	     -0.19450426	      1.97488058	      0.45971289	     -0.01826029	      2.16152120	      0.54034293	     -0.30083370	      2.00728703	      0.52797729	     -0.07760356	      2.08523345	      0.56898934	     -0.23719659	      2.01838160	      0.44799513	     -0.10152816	      2.10773897	      0.48413646	     -0.23225124	      1.92228162	      0.15495856	     -0.05684684	      2.02717996	      0.16207674	     -0.30633312	      1.94043720	      0.21226312	     -0.11348270	      2.01248431	      0.23997703	     -0.27879074	      2.02018523	      0.03823163	     -0.16626760	      1.97522438	      0.06148990	     -0.26661354
      0.87500000	      2.01535773	      0.74470559	     -0.18006964	     -1.11732679	     -1.71906937	      0.38888739	      3.83242634	      7.85690681	     -0.30258032	    -12.08857503	      9.36430905	     22.80201501	     -3.64300311	     -3.20901528	    -49.13152079	      0.45115869	     -5.14524653	      0.96932017	     10.78365053	      0.00000000	      0.00000000	      0.00000000	      0.00000000	      2.12048304	      0.73346941	     -0.10056256	      2.12523640	      0.71875615	     -0.28675374	      2.02557291	      0.74450427	     -0.18013896	      1.98905980	      0.79887068	     -0.18341514	      1.98894638	      0.78972130	     -0.23758244	      1.96328000	      0.69933205	     -0.11736178	      1.96238163	      0.69569272	     -0.23918306	      1.96283082	      0.69751238	     -0.17827242	      2.01548495	      0.35810137	     -0.09546080	      2.01374931	      0.36790913	     -0.19547797	      2.02226621	      0.45588440	     -0.01504763	      2.06270855	      0.51625762	     -0.07914465	      2.06531158	      0.43315763	     -0.09671253	      1.94398851	      0.03919551	     -0.12233013	      1.95111014	      0.04982434	     -0.18106634	      1.94310994	      0.14251171	     -0.04667968	      1.96716912	      0.19656491	     -0.10451953	      1.97609905	      0.37405228	     -0.15252961	      1.92359164	      0.06055901	     -0.18586840	      2.04859811	      0.01699200	     -0.14353789	      2.12037332	      0.39659495	     -0.32595414	      2.13360095	      0.38610351	     -0.22320141	      2.22139403	      0.52991859	     -0.31306019	      2.14776529	      0.56304748	     -0.24796445	      2.15897053	      0.47599562	     -0.24735744	      1.94109458	      0.08963440	     -0.32084703	      1.94803130	      0.08759207	     -0.25758129	      2.07009429	      0.12836323	     -0.32935756	      2.04896678	      0.20586254	     -0.30120988	      2.08723334	      0.38790388	     -0.25218596	      1.94044145	      0.10417309	     -0.24241272	      2.01774235	      0.01709407	     -0.30698968	      2.00225885	      1.13821773	     -0.12643191	      1.99052920	      1.15111668	     -0.24050845	      1.91597192	      1.14356030	     -0.17448137	      1.99747669	      1.13263400	     -0.18754739	      2.08532395	      1.02009799	     -0.20863270	      1.97010200	      0.69132700	     -0.18254800	      1.96585800	      0.69855200	     -0.11773100	      1.96437700	      0.69549400	     -0.24351400	      1.97929200	      0.38483300	     -0.15722300	      2.08369600	      0.39360800	     -0.25606500	      1.92393300	      0.05637100	     -0.16724500	      1.93895100	      0.11480700	     -0.25412400	      2.03000800	      0.76131400	     -0.18294900	      2.03110700	      0.76358400	     -0.08956300	      2.02890800	      0.75904300	     -0.27633600	      1.88354000	      0.79958000	     -0.16412700	      1.88185800	      0.79192100	     -0.21892200	      1.97988200	      0.37855100	     -0.10711900	      2.07933000	      0.39395300	     -0.30587300	      1.97369800	      0.38611400	     -0.20537600	      2.10629200	      0.39501600	     -0.20291000	      1.91854900	      0.05627000	     -0.13418000	      1.92965300	      0.11940600	     -0.28702700	      1.92404200	      0.06845200	     -0.19354800	      1.93834700	      0.12426200	     -0.22547300	      1.92477000	      1.14673300	     -0.17675600	      2.00726600	      1.09518100	     -0.12057900	      1.99776500	      1.10143400	     -0.24843100	      1.99639200	      1.08695400	     -0.18720100	      2.01064200	      0.94409000	     -0.19448200	      1.97774300	      0.45988200	     -0.01831700	      2.17368800	      0.54394300	     -0.29759600	      2.01214000	      0.52689100	     -0.07747300	      2.09541900	      0.57110700	     -0.23518500	      2.02106800	      0.44725000	     -0.10159300	      2.11920100	      0.48656700	     -0.23038500	      1.92253600	      0.15514400	     -0.05704300	      2.05282000	      0.16201700	     -0.30613900	      1.94107100	      0.21236900	     -0.11376700	      2.03379600	      0.23874900	     -0.27830800	      2.02029900	      0.03823000	     -0.16625800	      2.00675500	      0.05941600	     -0.26687700	    -10.72425401	    232.09747258	     -3.83616837	      1.99863696	      0.00000000	     -0.16125674	      0.00000000	      0.00000000	      0.00000000	      1.43549719	      0.00000000	     -0.19382121	      0.00000000	      0.89074091	      0.00000000	      0.00000000	      0.00000000	      0.00000000	      1.97010231	      0.69132698	     -0.18254805	      1.96585798	      0.69855207	     -0.11773060	      1.96437657	      0.69549394	     -0.24351361	      1.97929168	      0.38483313	     -0.15722322	      2.08369613	      0.39360797	     -0.25606525	      1.92393303	      0.05637145	     -0.16724470	      1.93895137	      0.11480744	     -0.25412351	      2.03000760	      0.76131374	     -0.18294939	      2.03110743	      0.76358420	     -0.08956315	      2.02890778	      0.75904328	     -0.27633566	      1.88354027	      0.79957974	     -0.16412680	      1.88185847	      0.79192120	     -0.21892180	      1.97988188	      0.37855104	     -0.10711896	      2.07932973	      0.39395314	     -0.30587307	      1.97369826	      0.38611364	     -0.20537607	      2.10629153	      0.39501551	     -0.20291010	      1.91854858	      0.05627013	     -0.13418043	      1.92965257	      0.11940595	     -0.28702694	      1.92404187	      0.06845160	     -0.19354786	      1.93834662	      0.12426245	     -0.22547305	      1.92476976	      1.14673281	     -0.17675573	      2.00726581	      1.09518147	     -0.12057927	      1.99776483	      1.10143399	     -0.24843080	      1.99639249	      1.08695352	     -0.18720119	      2.01064205	      0.94409043	     -0.19448200	      1.97774327	      0.45988190	     -0.01831749	      2.17368817	      0.54394251	     -0.29759619	      2.01213956	      0.52689093	     -0.07747285	      2.09541893	      0.57110667	     -0.23518458	      2.02106810	      0.44724998	     -0.10159253	      2.11920118	      0.48656699	     -0.23038509	      1.92253637	      0.15514416	     -0.05704296	      2.05282044	      0.16201748	     -0.30613908	      1.94107115	      0.21236914	     -0.11376691	      2.03379583	      0.23874919	     -0.27830830	      2.02029920	      0.03823047	     -0.16625838	      2.00675488	      0.05941612	     -0.26687682
